<svg width="18" height="18" viewBox="0 0 18 18" fill="none" xmlns="http://www.w3.org/2000/svg">
<path d="M17 14V8.4521V8.45135C17 7.91752 17 7.65045 16.9351 7.40193C16.8775 7.18159 16.7827 6.97263 16.6548 6.7842C16.5104 6.57158 16.3096 6.39569 15.9074 6.04383L11.1074 1.84383C10.3608 1.19054 9.98751 0.863942 9.56738 0.739699C9.19719 0.630224 8.80281 0.630224 8.43262 0.739699C8.01272 0.863874 7.63979 1.19019 6.894 1.84275L6.89278 1.84383L2.09277 6.04383L2.09182 6.04466C1.69032 6.39597 1.48944 6.57174 1.34521 6.7842C1.2173 6.97263 1.12255 7.18159 1.06497 7.40193C1 7.65057 1 7.91776 1 8.4521V14C1 14.9319 1 15.3978 1.15224 15.7653C1.35523 16.2554 1.74481 16.6447 2.23486 16.8477C2.60241 17 3.06835 17 4.00023 17C4.93211 17 5.39782 17 5.76537 16.8477C6.25542 16.6447 6.64467 16.2554 6.84766 15.7653C6.9999 15.3978 7 14.9318 7 14V13C7 11.8954 7.89543 11 9 11C10.1046 11 11 11.8954 11 13V14C11 14.9318 11 15.3978 11.1522 15.7653C11.3552 16.2554 11.7448 16.6447 12.2349 16.8477C12.6024 17 13.0683 17 14.0002 17C14.9321 17 15.3978 17 15.7654 16.8477C16.2554 16.6447 16.6447 16.2554 16.8477 15.7653C16.9999 15.3978 17 14.9319 17 14Z" stroke="#1D4ED8" stroke-width="1.2" stroke-linecap="round" stroke-linejoin="round"/>
</svg>
