<svg width="12" height="12" viewBox="0 0 12 12" fill="none" xmlns="http://www.w3.org/2000/svg">
<path d="M1.46066 1.97034L1.90616 2.19733L1.46066 1.97034ZM1.97038 1.46047L2.19737 1.90598L1.97038 1.46047ZM1.97038 10.5395L2.19737 10.094H2.19737L1.97038 10.5395ZM1.46066 10.0296L1.01515 10.2566L1.46066 10.0296ZM10.5398 10.0296L10.0943 9.80263L10.5398 10.0296ZM10.0297 10.5395L9.80271 10.094L10.0297 10.5395ZM10.5398 1.97034L10.0943 2.19733L10.5398 1.97034ZM10.0297 1.46047L10.2567 1.01497L10.0297 1.46047ZM6.00016 4.91665C5.72402 4.91665 5.50016 5.1405 5.50016 5.41665C5.50016 5.69279 5.72402 5.91665 6.00016 5.91665V4.91665ZM8.3335 5.91665C8.60964 5.91665 8.8335 5.69279 8.8335 5.41665C8.8335 5.1405 8.60964 4.91665 8.3335 4.91665V5.91665ZM6.00016 3.16665C5.72402 3.16665 5.50016 3.3905 5.50016 3.66665C5.50016 3.94279 5.72402 4.16665 6.00016 4.16665V3.16665ZM8.3335 4.16665C8.60964 4.16665 8.8335 3.94279 8.8335 3.66665C8.8335 3.3905 8.60964 3.16665 8.3335 3.16665V4.16665ZM3.16683 10.6666C3.16683 10.9428 3.39069 11.1666 3.66683 11.1666C3.94297 11.1666 4.16683 10.9428 4.16683 10.6666H3.16683ZM4.16683 1.33331C4.16683 1.05717 3.94297 0.833313 3.66683 0.833313C3.39069 0.833313 3.16683 1.05717 3.16683 1.33331L4.16683 1.33331ZM10.1668 3.19999V8.79999H11.1668V3.19999H10.1668ZM8.80028 10.1666H3.20028V11.1666H8.80028V10.1666ZM1.8335 8.79999V3.19999H0.833496V8.79999H1.8335ZM3.20028 1.83331H8.80028V0.833313H3.20028V1.83331ZM1.8335 3.19999C1.8335 2.86504 1.83388 2.6439 1.84773 2.47444C1.8611 2.31082 1.88448 2.23988 1.90616 2.19733L1.01515 1.74334C0.909672 1.95036 0.869473 2.16754 0.851052 2.39301C0.833107 2.61264 0.833496 2.88154 0.833496 3.19999H1.8335ZM3.20028 0.833313C2.88182 0.833313 2.61287 0.832924 2.39319 0.850867C2.1677 0.869284 1.95043 0.909474 1.74338 1.01497L2.19737 1.90598C2.23989 1.88431 2.31087 1.86092 2.47459 1.84755C2.64412 1.8337 2.86533 1.83331 3.20028 1.83331V0.833313ZM1.90616 2.19733C1.97014 2.07176 2.07206 1.96983 2.19737 1.90598L1.74338 1.01497C1.42965 1.17482 1.17487 1.42987 1.01515 1.74334L1.90616 2.19733ZM3.20028 10.1666C2.86534 10.1666 2.64413 10.1663 2.47461 10.1524C2.31088 10.139 2.2399 10.1156 2.19737 10.094L1.74338 10.985C1.95042 11.0905 2.16769 11.1307 2.39318 11.1491C2.61286 11.167 2.88182 11.1666 3.20028 11.1666V10.1666ZM0.833496 8.79999C0.833496 9.11843 0.833107 9.38734 0.851052 9.60696C0.869473 9.83242 0.909673 10.0496 1.01515 10.2566L1.90616 9.80263C1.88448 9.76008 1.8611 9.68914 1.84773 9.52553C1.83388 9.35607 1.8335 9.13493 1.8335 8.79999H0.833496ZM2.19737 10.094C2.07204 10.0301 1.97013 9.92818 1.90616 9.80263L1.01515 10.2566C1.17489 10.5701 1.42967 10.8251 1.74338 10.985L2.19737 10.094ZM10.1668 8.79999C10.1668 9.13498 10.1665 9.35612 10.1527 9.52561C10.1393 9.68925 10.1159 9.76014 10.0943 9.80263L10.9853 10.2566C11.0908 10.0496 11.131 9.83232 11.1493 9.60688C11.1672 9.38729 11.1668 9.11838 11.1668 8.79999H10.1668ZM8.80028 11.1666C9.11873 11.1666 9.38758 11.167 9.60717 11.1491C9.83262 11.1306 10.0497 11.0904 10.2567 10.985L9.80271 10.094C9.76013 10.1157 9.68921 10.139 9.52569 10.1524C9.3563 10.1663 9.13522 10.1666 8.80028 10.1666V11.1666ZM10.0943 9.80263C10.0305 9.92785 9.92838 10.0299 9.80271 10.094L10.2567 10.985C10.5701 10.8253 10.8254 10.5705 10.9853 10.2566L10.0943 9.80263ZM11.1668 3.19999C11.1668 2.88159 11.1672 2.61268 11.1493 2.39309C11.131 2.16765 11.0908 1.95041 10.9853 1.74334L10.0943 2.19733C10.1159 2.23982 10.1393 2.31071 10.1527 2.47436C10.1665 2.64385 10.1668 2.86499 10.1668 3.19999H11.1668ZM8.80028 1.83331C9.13523 1.83331 9.3563 1.8337 9.5257 1.84755C9.68923 1.86091 9.76013 1.88428 9.80271 1.90598L10.2567 1.01497C10.0497 0.909503 9.8326 0.869294 9.60715 0.850869C9.38758 0.832924 9.11872 0.833313 8.80028 0.833313V1.83331ZM10.9853 1.74334C10.8254 1.42953 10.5701 1.17465 10.2567 1.01497L9.80271 1.90598C9.92836 1.97 10.0305 2.0721 10.0943 2.19733L10.9853 1.74334ZM6.00016 5.91665H8.3335V4.91665H6.00016V5.91665ZM6.00016 4.16665H8.3335V3.16665H6.00016V4.16665ZM4.16683 10.6666L4.16683 1.33331L3.16683 1.33331L3.16683 10.6666H4.16683Z" fill="#1D4ED8"/>
</svg>
