<svg width="18" height="17" viewBox="0 0 18 17" fill="none" xmlns="http://www.w3.org/2000/svg">
<path d="M9.96008 1.28003L16.3426 7.66253C17.1001 8.42003 17.1001 9.64253 16.3426 10.4L10.7701 15.9725C10.0126 16.73 8.79008 16.73 8.03258 15.9725L1.65008 9.59003C1.29008 9.23003 1.08008 8.73503 1.08008 8.22503V2.65253C1.08008 1.58753 1.95008 0.717529 3.01508 0.717529H8.58758C9.10508 0.717529 9.60008 0.920029 9.96008 1.28003Z" stroke="#444444" stroke-width="0.7" stroke-miterlimit="10" stroke-linecap="round" stroke-linejoin="round"/>
<path d="M5.5801 6.25248C6.15585 6.25248 6.6226 5.78574 6.6226 5.20998C6.6226 4.63422 6.15585 4.16748 5.5801 4.16748C5.00434 4.16748 4.5376 4.63422 4.5376 5.20998C4.5376 5.78574 5.00434 6.25248 5.5801 6.25248Z" stroke="#444444" stroke-width="0.7" stroke-miterlimit="10" stroke-linecap="round" stroke-linejoin="round"/>
</svg>
